<svg width="11" height="16" viewBox="0 0 11 16" fill="none" xmlns="http://www.w3.org/2000/svg">
<path d="M9.92126 5.46625C10.4838 6.32041 10.765 7.26833 10.765 8.31C10.765 9.76833 10.2338 11.0287 9.17126 12.0912C8.1296 13.1329 6.8796 13.6537 5.42126 13.6537V15.6537L2.76501 12.9662L5.42126 10.31V12.31C6.52543 12.31 7.46293 11.9246 8.23376 11.1537C9.02543 10.3621 9.42126 9.41416 9.42126 8.31C9.42126 7.685 9.26501 7.06 8.95251 6.435L9.92126 5.46625ZM5.42126 4.31C4.3171 4.31 3.36918 4.70583 2.57751 5.4975C1.80668 6.26833 1.42126 7.20583 1.42126 8.31C1.42126 8.97666 1.57751 9.60166 1.89001 10.185L0.921265 11.1537C0.358765 10.2996 0.0775146 9.35166 0.0775146 8.31C0.0775146 6.85166 0.598348 5.60166 1.64001 4.56C2.70251 3.4975 3.96293 2.96625 5.42126 2.96625V0.966248L8.07751 3.65375L5.42126 6.31V4.31Z" fill="white" fill-opacity="0.7"/>
</svg>
